<svg version="1.1" xmlns="http://www.w3.org/2000/svg" xmlns:xlink="http://www.w3.org/1999/xlink" width="2164" height="1200"><defs><clipPath id="FxUBvTWpCiMH"><path fill="none" stroke="none" d=" M 0 0 L 2164 0 L 2164 1200 L 0 1200 L 0 0 Z"/></clipPath></defs><g transform="scale(1,1)" clip-path="url(#FxUBvTWpCiMH)"><g><rect fill="rgb(255,255,255)" stroke="none" x="0" y="0" width="2164" height="1200" fill-opacity="1"/><path fill="rgb(0,0,0)" stroke="none" paint-order="stroke fill markers" d=" M 76.01880965849183 483.4556712463609 C 111.56030165429434 483.455671246361 144.43108948465675 470.52715316454703 162.36109392698933 449.4961023686325 C 180.2910983693219 428.4650515727179 180.58568085548836 402.4921521989155 163.13487899391168 381.2726246539153 L 76.01880965849195 414.9223493572123 Z" fill-opacity="0.09803921568627451"/><path fill="none" stroke="rgb(0,0,0)" paint-order="fill stroke markers" d=" M 76.01880965849183 483.4556712463609 C 111.56030165429434 483.455671246361 144.43108948465675 470.52715316454703 162.36109392698933 449.4961023686325 C 180.2910983693219 428.4650515727179 180.58568085548836 402.4921521989155 163.13487899391168 381.2726246539153 L 76.01880965849195 414.9223493572123 Z" stroke-opacity="0.6" stroke-linecap="round" stroke-linejoin="round" stroke-miterlimit="10" stroke-width="1.5"/><text fill="rgb(0,0,0)" stroke="none" font-family="geogebra-sans-serif, sans-serif" font-size="16px" font-style="normal" font-weight="normal" text-decoration="normal" x="123" y="440" text-anchor="start" dominant-baseline="alphabetic" fill-opacity="1">β</text><text fill="none" stroke="rgb(255,255,255)" font-family="geogebra-sans-serif, sans-serif" font-size="16px" font-style="normal" font-weight="normal" text-decoration="normal" x="123" y="440" text-anchor="start" dominant-baseline="alphabetic" stroke-opacity="1" stroke-linejoin="bevel" stroke-miterlimit="10" stroke-width="3">β</text><text fill="rgb(0,0,0)" stroke="none" font-family="geogebra-sans-serif, sans-serif" font-size="16px" font-style="normal" font-weight="normal" text-decoration="normal" x="123" y="440" text-anchor="start" dominant-baseline="alphabetic" fill-opacity="1">β</text><path fill="rgb(0,0,0)" stroke="none" paint-order="stroke fill markers" d=" M 926.8275042500625 86.28632885510615 C 949.1765337187782 113.46191941977895 995.4845973635377 126.86522860745367 1039.4916179786867 118.89559453816787 C 1083.498638593836 110.92596046888207 1114.1002042399975 83.59438271666727 1113.942977005081 52.399875609381525 L 1013.9435735854821 52.636604151809024 Z" fill-opacity="0.09803921568627451"/><path fill="none" stroke="rgb(0,0,0)" paint-order="fill stroke markers" d=" M 926.8275042500625 86.28632885510615 C 949.1765337187782 113.46191941977895 995.4845973635377 126.86522860745367 1039.4916179786867 118.89559453816787 C 1083.498638593836 110.92596046888207 1114.1002042399975 83.59438271666727 1113.942977005081 52.399875609381525 L 1013.9435735854821 52.636604151809024 Z" stroke-opacity="0.6" stroke-linecap="round" stroke-linejoin="round" stroke-miterlimit="10" stroke-width="1.5"/><text fill="rgb(0,0,0)" stroke="none" font-family="geogebra-sans-serif, sans-serif" font-size="16px" font-style="normal" font-weight="normal" text-decoration="normal" x="1025" y="96" text-anchor="start" dominant-baseline="alphabetic" fill-opacity="1">γ</text><text fill="none" stroke="rgb(255,255,255)" font-family="geogebra-sans-serif, sans-serif" font-size="16px" font-style="normal" font-weight="normal" text-decoration="normal" x="1025" y="96" text-anchor="start" dominant-baseline="alphabetic" stroke-opacity="1" stroke-linejoin="bevel" stroke-miterlimit="10" stroke-width="3">γ</text><text fill="rgb(0,0,0)" stroke="none" font-family="geogebra-sans-serif, sans-serif" font-size="16px" font-style="normal" font-weight="normal" text-decoration="normal" x="1025" y="96" text-anchor="start" dominant-baseline="alphabetic" fill-opacity="1">γ</text><path fill="rgb(0,0,0)" stroke="none" paint-order="stroke fill markers" d=" M 1988.5035830018417 50.32952868287566 C 1988.6938880067266 88.08679656712252 2033.4093588294159 118.6261220295969 2088.5029864214403 118.6261220295969 L 2088.5029864214403 50.09280014044816 Z" fill-opacity="0.09803921568627451"/><path fill="none" stroke="rgb(0,0,0)" paint-order="fill stroke markers" d=" M 1988.5035830018417 50.32952868287566 C 1988.6938880067266 88.08679656712252 2033.4093588294159 118.6261220295969 2088.5029864214403 118.6261220295969 L 2088.5029864214403 50.09280014044816 Z" stroke-opacity="0.6" stroke-linecap="round" stroke-linejoin="round" stroke-miterlimit="10" stroke-width="1.5"/><text fill="rgb(0,0,0)" stroke="none" font-family="geogebra-sans-serif, sans-serif" font-size="16px" font-style="normal" font-weight="normal" text-decoration="normal" x="2043" y="83" text-anchor="start" dominant-baseline="alphabetic" fill-opacity="1">δ</text><text fill="none" stroke="rgb(255,255,255)" font-family="geogebra-sans-serif, sans-serif" font-size="16px" font-style="normal" font-weight="normal" text-decoration="normal" x="2043" y="83" text-anchor="start" dominant-baseline="alphabetic" stroke-opacity="1" stroke-linejoin="bevel" stroke-miterlimit="10" stroke-width="3">δ</text><text fill="rgb(0,0,0)" stroke="none" font-family="geogebra-sans-serif, sans-serif" font-size="16px" font-style="normal" font-weight="normal" text-decoration="normal" x="2043" y="83" text-anchor="start" dominant-baseline="alphabetic" fill-opacity="1">δ</text><text fill="rgb(97,97,97)" stroke="none" font-family="geogebra-sans-serif, sans-serif" font-size="16px" font-style="normal" font-weight="normal" text-decoration="normal" x="92" y="783" text-anchor="start" dominant-baseline="alphabetic" fill-opacity="1">25</text><text fill="none" stroke="rgb(255,255,255)" font-family="geogebra-sans-serif, sans-serif" font-size="16px" font-style="normal" font-weight="normal" text-decoration="normal" x="92" y="783" text-anchor="start" dominant-baseline="alphabetic" stroke-opacity="1" stroke-linejoin="bevel" stroke-miterlimit="10" stroke-width="3">25</text><text fill="rgb(97,97,97)" stroke="none" font-family="geogebra-sans-serif, sans-serif" font-size="16px" font-style="normal" font-weight="normal" text-decoration="normal" x="92" y="783" text-anchor="start" dominant-baseline="alphabetic" fill-opacity="1">25</text><path fill="rgb(97,97,97)" stroke="none" paint-order="stroke fill markers" d=" M 76.01880965849195 411.6723493572123 C 74.22388422154187 411.6723493572123 72.76880965849195 413.12742392026223 72.76880965849195 414.9223493572123 L 72.76880965849195 1138.4047306443981 L 72.76880965121535 1138.4047306443981 C 67.15227968548409 1139.841317274709 63 1144.9357501949887 63 1151 C 63 1158.1797017478002 68.82029825219969 1164 76 1164 C 83.17970174780031 1164 89 1158.1797017478002 89 1151 C 89 1144.949297472307 84.86625162632586 1139.86408360956 79.26880966695825 1138.4144131997405 L 79.26880965849195 1138.4144131997405 L 79.26880965849195 414.9223493572123 C 79.26880965849195 413.12742392026223 77.81373509544203 411.6723493572123 76.01880965849195 411.6723493572123 Z" fill-opacity="0.8"/><text fill="rgb(97,97,97)" stroke="none" font-family="geogebra-sans-serif, sans-serif" font-size="16px" font-style="normal" font-weight="normal" text-decoration="normal" x="550" y="248" text-anchor="start" dominant-baseline="alphabetic" fill-opacity="1">25</text><text fill="none" stroke="rgb(255,255,255)" font-family="geogebra-sans-serif, sans-serif" font-size="16px" font-style="normal" font-weight="normal" text-decoration="normal" x="550" y="248" text-anchor="start" dominant-baseline="alphabetic" stroke-opacity="1" stroke-linejoin="bevel" stroke-miterlimit="10" stroke-width="3">25</text><text fill="rgb(97,97,97)" stroke="none" font-family="geogebra-sans-serif, sans-serif" font-size="16px" font-style="normal" font-weight="normal" text-decoration="normal" x="550" y="248" text-anchor="start" dominant-baseline="alphabetic" fill-opacity="1">25</text><path fill="rgb(97,97,97)" stroke="none" paint-order="stroke fill markers" d=" M 1013.9428433723172 49.38572927790039 C 1013.5534720116408 49.38572927790039 1013.1575276666376 49.45620166332035 1012.7725410875491 49.60490778033892 L 87.06447142941943 407.1717945470229 L 87.0644714294344 407.1717945470229 C 84.77376299917621 403.4677967931642 80.67507391187485 401 76 401 C 68.82029825219969 401 63 406.8202982521997 63 414 C 63 421.1797017478003 68.82029825219969 427 76 427 C 83.17970174780031 427 89 421.1797017478003 89 414 C 89 413.798062989896 88.995395692967 413.5972013733206 88.98628633347549 413.39751440484844 L 88.9862863245769 413.39751440484844 L 1015.1146060834151 55.66830052327913 C 1016.7889657554954 55.02155713311449 1017.6220133471168 53.13993132595635 1016.9752699569522 51.465571653876054 C 1016.4772326838062 50.17619856088421 1015.2469017029388 49.38572927790039 1013.9428433723172 49.38572927790039 Z" fill-opacity="0.8"/><text fill="rgb(97,97,97)" stroke="none" font-family="geogebra-sans-serif, sans-serif" font-size="16px" font-style="normal" font-weight="normal" text-decoration="normal" x="1551" y="67" text-anchor="start" dominant-baseline="alphabetic" fill-opacity="1">25</text><text fill="none" stroke="rgb(255,255,255)" font-family="geogebra-sans-serif, sans-serif" font-size="16px" font-style="normal" font-weight="normal" text-decoration="normal" x="1551" y="67" text-anchor="start" dominant-baseline="alphabetic" stroke-opacity="1" stroke-linejoin="bevel" stroke-miterlimit="10" stroke-width="3">25</text><text fill="rgb(97,97,97)" stroke="none" font-family="geogebra-sans-serif, sans-serif" font-size="16px" font-style="normal" font-weight="normal" text-decoration="normal" x="1551" y="67" text-anchor="start" dominant-baseline="alphabetic" fill-opacity="1">25</text><path fill="rgb(97,97,97)" stroke="none" paint-order="stroke fill markers" d=" M 2088 37 C 2081.8980027132284 37 2076.7779333164185 41.20413306294268 2075.37832997085 46.87386102754971 L 2075.3783297633136 46.87386102754971 L 1013.9358798835121 49.38661325844486 C 1012.1409594760181 49.39086237271262 1010.6893335778502 50.84937744628501 1010.693582692118 52.644297853778994 C 1010.6978256021956 54.4365974733268 1012.1520907845614 55.8866043497267 1013.9434070786733 55.8866043497267 C 1013.946026428753 55.8866043497267 1013.9486464995059 55.8866012493633 1013.9512672874521 55.88659504517319 L 2075.442047168613 53.3737284026877 L 2075.442057123991 53.3737284026877 C 2076.927770987468 58.91783017769384 2081.9871645693397 63 2088 63 C 2095.1797017478 63 2101 57.17970174780031 2101 50 C 2101 42.820298252199684 2095.1797017478 37 2088 37 Z" fill-opacity="0.8"/><text fill="rgb(97,97,97)" stroke="none" font-family="geogebra-sans-serif, sans-serif" font-size="16px" font-style="normal" font-weight="normal" text-decoration="normal" x="2107" y="198" text-anchor="start" dominant-baseline="alphabetic" fill-opacity="1">10</text><text fill="none" stroke="rgb(255,255,255)" font-family="geogebra-sans-serif, sans-serif" font-size="16px" font-style="normal" font-weight="normal" text-decoration="normal" x="2107" y="198" text-anchor="start" dominant-baseline="alphabetic" stroke-opacity="1" stroke-linejoin="bevel" stroke-miterlimit="10" stroke-width="3">10</text><text fill="rgb(97,97,97)" stroke="none" font-family="geogebra-sans-serif, sans-serif" font-size="16px" font-style="normal" font-weight="normal" text-decoration="normal" x="2107" y="198" text-anchor="start" dominant-baseline="alphabetic" fill-opacity="1">10</text><path fill="rgb(97,97,97)" stroke="none" paint-order="stroke fill markers" d=" M 2088.5029864214403 46.84280014044816 C 2086.70806098449 46.84280014044816 2085.2529864214403 48.29787470349808 2085.2529864214403 50.09280014044816 L 2085.2529864214403 330.29077955361834 L 2085.252986212915 330.29077955361834 C 2079.392560903361 331.5514511341058 2075 336.7627567819557 2075 343 C 2075 350.1797017478003 2080.8202982522 356 2088 356 C 2095.1797017478 356 2101 350.1797017478003 2101 343 C 2101 337.12511833065827 2097.1029975400334 332.1604303553323 2091.752986630616 330.54993008453806 L 2091.7529864214403 330.54993008453806 L 2091.7529864214403 50.09280014044816 C 2091.7529864214403 48.29787470349808 2090.2979118583903 46.84280014044816 2088.5029864214403 46.84280014044816 Z" fill-opacity="0.8"/><path fill="rgb(21,101,192)" stroke="none" paint-order="stroke fill markers" d=" M 81.01880965849195 1151.7201123391817 C 81.01880965849195 1154.4815360883356 78.78023340764591 1156.7201123391817 76.01880965849195 1156.7201123391817 C 73.25738590933798 1156.7201123391817 71.01880965849195 1154.4815360883356 71.01880965849195 1151.7201123391817 C 71.01880965849195 1148.9586885900278 73.25738590933798 1146.7201123391817 76.01880965849195 1146.7201123391817 C 78.78023340764591 1146.7201123391817 81.01880965849195 1148.9586885900278 81.01880965849195 1151.7201123391817 Z" fill-opacity="1"/><path fill="none" stroke="rgb(0,0,0)" paint-order="fill stroke markers" d=" M 81.01880965849195 1151.7201123391817 C 81.01880965849195 1154.4815360883356 78.78023340764591 1156.7201123391817 76.01880965849195 1156.7201123391817 C 73.25738590933798 1156.7201123391817 71.01880965849195 1154.4815360883356 71.01880965849195 1151.7201123391817 C 71.01880965849195 1148.9586885900278 73.25738590933798 1146.7201123391817 76.01880965849195 1146.7201123391817 C 78.78023340764591 1146.7201123391817 81.01880965849195 1148.9586885900278 81.01880965849195 1151.7201123391817 Z" stroke-opacity="1" stroke-linecap="round" stroke-linejoin="round" stroke-miterlimit="10"/><text fill="rgb(21,101,192)" stroke="none" font-family="geogebra-sans-serif, sans-serif" font-size="16px" font-style="normal" font-weight="normal" text-decoration="normal" x="96" y="1156" text-anchor="start" dominant-baseline="alphabetic" fill-opacity="1">A</text><text fill="none" stroke="rgb(255,255,255)" font-family="geogebra-sans-serif, sans-serif" font-size="16px" font-style="normal" font-weight="normal" text-decoration="normal" x="96" y="1156" text-anchor="start" dominant-baseline="alphabetic" stroke-opacity="1" stroke-linejoin="bevel" stroke-miterlimit="10" stroke-width="3">A</text><text fill="rgb(21,101,192)" stroke="none" font-family="geogebra-sans-serif, sans-serif" font-size="16px" font-style="normal" font-weight="normal" text-decoration="normal" x="96" y="1156" text-anchor="start" dominant-baseline="alphabetic" fill-opacity="1">A</text><path fill="rgb(21,101,192)" stroke="none" paint-order="stroke fill markers" d=" M 81.01880965849195 414.9223493572123 C 81.01880965849195 417.68377310636623 78.78023340764591 419.9223493572123 76.01880965849195 419.9223493572123 C 73.25738590933798 419.9223493572123 71.01880965849195 417.68377310636623 71.01880965849195 414.9223493572123 C 71.01880965849195 412.16092560805834 73.25738590933798 409.9223493572123 76.01880965849195 409.9223493572123 C 78.78023340764591 409.9223493572123 81.01880965849195 412.16092560805834 81.01880965849195 414.9223493572123 Z" fill-opacity="1"/><path fill="none" stroke="rgb(0,0,0)" paint-order="fill stroke markers" d=" M 81.01880965849195 414.9223493572123 C 81.01880965849195 417.68377310636623 78.78023340764591 419.9223493572123 76.01880965849195 419.9223493572123 C 73.25738590933798 419.9223493572123 71.01880965849195 417.68377310636623 71.01880965849195 414.9223493572123 C 71.01880965849195 412.16092560805834 73.25738590933798 409.9223493572123 76.01880965849195 409.9223493572123 C 78.78023340764591 409.9223493572123 81.01880965849195 412.16092560805834 81.01880965849195 414.9223493572123 Z" stroke-opacity="1" stroke-linecap="round" stroke-linejoin="round" stroke-miterlimit="10"/><text fill="rgb(21,101,192)" stroke="none" font-family="geogebra-sans-serif, sans-serif" font-size="16px" font-style="normal" font-weight="normal" text-decoration="normal" x="66" y="399" text-anchor="start" dominant-baseline="alphabetic" fill-opacity="1">B</text><text fill="none" stroke="rgb(255,255,255)" font-family="geogebra-sans-serif, sans-serif" font-size="16px" font-style="normal" font-weight="normal" text-decoration="normal" x="66" y="399" text-anchor="start" dominant-baseline="alphabetic" stroke-opacity="1" stroke-linejoin="bevel" stroke-miterlimit="10" stroke-width="3">B</text><text fill="rgb(21,101,192)" stroke="none" font-family="geogebra-sans-serif, sans-serif" font-size="16px" font-style="normal" font-weight="normal" text-decoration="normal" x="66" y="399" text-anchor="start" dominant-baseline="alphabetic" fill-opacity="1">B</text><path fill="rgb(21,101,192)" stroke="none" paint-order="stroke fill markers" d=" M 1018.9435735854821 52.636604151809024 C 1018.9435735854821 55.39802790096299 1016.7049973346361 57.636604151809024 1013.9435735854821 57.636604151809024 C 1011.1821498363281 57.636604151809024 1008.9435735854821 55.39802790096299 1008.9435735854821 52.636604151809024 C 1008.9435735854821 49.875180402655054 1011.1821498363281 47.636604151809024 1013.9435735854821 47.636604151809024 C 1016.7049973346361 47.636604151809024 1018.9435735854821 49.875180402655054 1018.9435735854821 52.636604151809024 Z" fill-opacity="1"/><path fill="none" stroke="rgb(0,0,0)" paint-order="fill stroke markers" d=" M 1018.9435735854821 52.636604151809024 C 1018.9435735854821 55.39802790096299 1016.7049973346361 57.636604151809024 1013.9435735854821 57.636604151809024 C 1011.1821498363281 57.636604151809024 1008.9435735854821 55.39802790096299 1008.9435735854821 52.636604151809024 C 1008.9435735854821 49.875180402655054 1011.1821498363281 47.636604151809024 1013.9435735854821 47.636604151809024 C 1016.7049973346361 47.636604151809024 1018.9435735854821 49.875180402655054 1018.9435735854821 52.636604151809024 Z" stroke-opacity="1" stroke-linecap="round" stroke-linejoin="round" stroke-miterlimit="10"/><text fill="rgb(21,101,192)" stroke="none" font-family="geogebra-sans-serif, sans-serif" font-size="16px" font-style="normal" font-weight="normal" text-decoration="normal" x="1018" y="43" text-anchor="start" dominant-baseline="alphabetic" fill-opacity="1">C</text><text fill="none" stroke="rgb(255,255,255)" font-family="geogebra-sans-serif, sans-serif" font-size="16px" font-style="normal" font-weight="normal" text-decoration="normal" x="1018" y="43" text-anchor="start" dominant-baseline="alphabetic" stroke-opacity="1" stroke-linejoin="bevel" stroke-miterlimit="10" stroke-width="3">C</text><text fill="rgb(21,101,192)" stroke="none" font-family="geogebra-sans-serif, sans-serif" font-size="16px" font-style="normal" font-weight="normal" text-decoration="normal" x="1018" y="43" text-anchor="start" dominant-baseline="alphabetic" fill-opacity="1">C</text><path fill="rgb(21,101,192)" stroke="none" paint-order="stroke fill markers" d=" M 2093.5029864214403 50.09280014044816 C 2093.5029864214403 52.854223889602125 2091.264410170594 55.09280014044816 2088.5029864214403 55.09280014044816 C 2085.7415626722864 55.09280014044816 2083.5029864214403 52.854223889602125 2083.5029864214403 50.09280014044816 C 2083.5029864214403 47.33137639129419 2085.7415626722864 45.09280014044816 2088.5029864214403 45.09280014044816 C 2091.264410170594 45.09280014044816 2093.5029864214403 47.33137639129419 2093.5029864214403 50.09280014044816 Z" fill-opacity="1"/><path fill="none" stroke="rgb(0,0,0)" paint-order="fill stroke markers" d=" M 2093.5029864214403 50.09280014044816 C 2093.5029864214403 52.854223889602125 2091.264410170594 55.09280014044816 2088.5029864214403 55.09280014044816 C 2085.7415626722864 55.09280014044816 2083.5029864214403 52.854223889602125 2083.5029864214403 50.09280014044816 C 2083.5029864214403 47.33137639129419 2085.7415626722864 45.09280014044816 2088.5029864214403 45.09280014044816 C 2091.264410170594 45.09280014044816 2093.5029864214403 47.33137639129419 2093.5029864214403 50.09280014044816 Z" stroke-opacity="1" stroke-linecap="round" stroke-linejoin="round" stroke-miterlimit="10"/><text fill="rgb(21,101,192)" stroke="none" font-family="geogebra-sans-serif, sans-serif" font-size="16px" font-style="normal" font-weight="normal" text-decoration="normal" x="2093" y="40" text-anchor="start" dominant-baseline="alphabetic" fill-opacity="1">D</text><text fill="none" stroke="rgb(255,255,255)" font-family="geogebra-sans-serif, sans-serif" font-size="16px" font-style="normal" font-weight="normal" text-decoration="normal" x="2093" y="40" text-anchor="start" dominant-baseline="alphabetic" stroke-opacity="1" stroke-linejoin="bevel" stroke-miterlimit="10" stroke-width="3">D</text><text fill="rgb(21,101,192)" stroke="none" font-family="geogebra-sans-serif, sans-serif" font-size="16px" font-style="normal" font-weight="normal" text-decoration="normal" x="2093" y="40" text-anchor="start" dominant-baseline="alphabetic" fill-opacity="1">D</text><path fill="rgb(21,101,192)" stroke="none" paint-order="stroke fill markers" d=" M 2093.5029864214403 343.9021634526438 C 2093.5029864214403 346.6635872017977 2091.264410170594 348.9021634526438 2088.5029864214403 348.9021634526438 C 2085.7415626722864 348.9021634526438 2083.5029864214403 346.6635872017977 2083.5029864214403 343.9021634526438 C 2083.5029864214403 341.1407397034898 2085.7415626722864 338.9021634526438 2088.5029864214403 338.9021634526438 C 2091.264410170594 338.9021634526438 2093.5029864214403 341.1407397034898 2093.5029864214403 343.9021634526438 Z" fill-opacity="1"/><path fill="none" stroke="rgb(0,0,0)" paint-order="fill stroke markers" d=" M 2093.5029864214403 343.9021634526438 C 2093.5029864214403 346.6635872017977 2091.264410170594 348.9021634526438 2088.5029864214403 348.9021634526438 C 2085.7415626722864 348.9021634526438 2083.5029864214403 346.6635872017977 2083.5029864214403 343.9021634526438 C 2083.5029864214403 341.1407397034898 2085.7415626722864 338.9021634526438 2088.5029864214403 338.9021634526438 C 2091.264410170594 338.9021634526438 2093.5029864214403 341.1407397034898 2093.5029864214403 343.9021634526438 Z" stroke-opacity="1" stroke-linecap="round" stroke-linejoin="round" stroke-miterlimit="10"/><text fill="rgb(21,101,192)" stroke="none" font-family="geogebra-sans-serif, sans-serif" font-size="16px" font-style="normal" font-weight="normal" text-decoration="normal" x="2102" y="347" text-anchor="start" dominant-baseline="alphabetic" fill-opacity="1">E</text><text fill="none" stroke="rgb(255,255,255)" font-family="geogebra-sans-serif, sans-serif" font-size="16px" font-style="normal" font-weight="normal" text-decoration="normal" x="2102" y="347" text-anchor="start" dominant-baseline="alphabetic" stroke-opacity="1" stroke-linejoin="bevel" stroke-miterlimit="10" stroke-width="3">E</text><text fill="rgb(21,101,192)" stroke="none" font-family="geogebra-sans-serif, sans-serif" font-size="16px" font-style="normal" font-weight="normal" text-decoration="normal" x="2102" y="347" text-anchor="start" dominant-baseline="alphabetic" fill-opacity="1">E</text></g></g></svg>